<?xml version="1.0" encoding="utf-8"?>
<!-- Generator: Adobe Illustrator 15.1.0, SVG Export Plug-In  -->
<!DOCTYPE svg PUBLIC "-//W3C//DTD SVG 1.1//EN" "http://www.w3.org/Graphics/SVG/1.1/DTD/svg11.dtd" [
	<!ENTITY ns_flows "http://ns.adobe.com/Flows/1.0/">
]>
<svg version="1.1"
	 xmlns="http://www.w3.org/2000/svg" xmlns:xlink="http://www.w3.org/1999/xlink" xmlns:a="http://ns.adobe.com/AdobeSVGViewerExtensions/3.0/"
	 x="0px" y="0px" width="854px" height="660px" viewBox="0 -0.7832031 854 660"
	 overflow="visible" enable-background="new 0 -0.7832031 854 660" xml:space="preserve">
<defs>
</defs>
<polygon points="781.4580078,372.4648438 840.5048828,308.9257812 728.1113281,249.8662109 819.7363281,129.7119141 
	684.5390625,138.671875 680.0595703,10.7788086 550.9707031,81.6499023 483.3730469,19.3320312 387.2685547,92.6469727 
	333.9228516,14.0371094 271.6176758,99.1640625 111.987793,66.5800781 152.3017578,184.2910156 32.1713867,152.9282227 
	86.7397461,244.5722656 9.3676758,289.375 71.6728516,378.9824219 11.4033203,459.6279297 129.4975586,486.1025391 
	24.8417969,644.5439453 286.6845703,530.90625 366.5,595.2597656 380.7529297,530.90625 481.3369141,598.5185547 
	499.6601562,523.1679688 596.9863281,592.0019531 612.4619141,510.9482422 755.3955078,542.7177734 723.6328125,449.8525391 
	840.5048828,462.8857422 "/>
<g>
	<defs>
		<rect id="SVGID_1_" y="0.0009766" width="853.484375" height="659.2158203"/>
	</defs>
	<clipPath id="SVGID_2_">
		<use xlink:href="#SVGID_1_"  overflow="visible"/>
	</clipPath>
	<polygon clip-path="url(#SVGID_2_)" fill="none" stroke="#FFFFFF" stroke-width="13" points="781.4580078,372.4648438 
		840.5048828,308.9257812 728.1113281,249.8662109 819.7363281,129.7119141 684.5390625,138.671875 680.0595703,10.7788086 
		550.9707031,81.6499023 483.3730469,19.3320312 387.2685547,92.6469727 333.9228516,14.0371094 271.6176758,99.1640625 
		111.987793,66.5800781 152.3017578,184.2910156 32.1713867,152.9282227 86.7397461,244.5722656 9.3676758,289.375 
		71.6728516,378.9824219 11.4033203,459.6279297 129.4975586,486.1025391 24.8417969,644.5439453 286.6845703,530.90625 
		366.5,595.2597656 380.7529297,530.90625 481.3369141,598.5185547 499.6601562,523.1679688 596.9863281,592.0019531 
		612.4619141,510.9482422 755.3955078,542.7177734 723.6328125,449.8525391 840.5048828,462.8857422 	"/>
</g>
</svg>
