<?xml version="1.0" encoding="utf-8"?>
<!-- Generator: Adobe Illustrator 15.1.0, SVG Export Plug-In  -->
<!DOCTYPE svg PUBLIC "-//W3C//DTD SVG 1.1//EN" "http://www.w3.org/Graphics/SVG/1.1/DTD/svg11.dtd" [
	<!ENTITY ns_flows "http://ns.adobe.com/Flows/1.0/">
]>
<svg version="1.1"
	 xmlns="http://www.w3.org/2000/svg" xmlns:xlink="http://www.w3.org/1999/xlink" xmlns:a="http://ns.adobe.com/AdobeSVGViewerExtensions/3.0/"
	 x="0px" y="0px" width="146px" height="112px" viewBox="0 -0.8408203 146 112"
	 overflow="visible" enable-background="new 0 -0.8408203 146 112" xml:space="preserve">
<defs>
</defs>
<polygon points="131.3144531,62.2880859 141.1162109,51.9233398 122.4589844,42.2900391 137.6679688,22.6904297 
	115.2265625,24.1513672 114.4824219,3.2890625 93.0527344,14.8500977 81.8320312,4.684082 65.8789062,16.644043 
	57.0239258,3.8212891 46.6811523,17.7075195 20.1831055,12.3911133 26.875,31.5932617 6.9331055,26.4770508 15.9921875,41.4262695 
	3.1479492,48.734375 13.4902344,63.3515625 3.4863281,76.5058594 23.0888672,80.8251953 5.7172852,106.6699219 
	49.1821289,88.1328125 62.4321289,98.6308594 64.796875,88.1328125 81.4941406,99.1621094 84.5361328,86.8710938 
	100.6923828,98.0996094 103.2607422,84.8779297 126.9882812,90.0605469 121.7148438,74.9121094 141.1162109,77.0380859 "/>
<g>
	<defs>
		<rect id="SVGID_1_" width="145.1484375" height="111.1591797"/>
	</defs>
	<clipPath id="SVGID_2_">
		<use xlink:href="#SVGID_1_"  overflow="visible"/>
	</clipPath>
	<polygon clip-path="url(#SVGID_2_)" fill="none" stroke="#FFFFFF" stroke-width="4" points="131.3144531,62.2880859 
		141.1162109,51.9233398 122.4589844,42.2900391 137.6679688,22.6904297 115.2265625,24.1513672 114.4824219,3.2890625 
		93.0527344,14.8500977 81.8320312,4.684082 65.8789062,16.644043 57.0239258,3.8212891 46.6811523,17.7075195 
		20.1831055,12.3911133 26.875,31.5932617 6.9331055,26.4770508 15.9921875,41.4262695 3.1479492,48.734375 13.4902344,63.3515625 
		3.4863281,76.5058594 23.0888672,80.8251953 5.7172852,106.6699219 49.1821289,88.1328125 62.4321289,98.6308594 
		64.796875,88.1328125 81.4941406,99.1621094 84.5361328,86.8710938 100.6923828,98.0996094 103.2607422,84.8779297 
		126.9882812,90.0605469 121.7148438,74.9121094 141.1162109,77.0380859 	"/>
	<path clip-path="url(#SVGID_2_)" fill="#FFFFFF" d="M86.3535156,41.3427734l-0.4599609-5.2602539l23.3105469-2.0400391
		l0.4599609,5.2602539l-8.5273438,0.7460938l2.0283203,23.1914062l-6.2558594,0.546875l-2.0283203-23.1914062L86.3535156,41.3427734
		z M76.8027344,44.5263672c-0.4248047-0.5649414-0.9355469-1.0488281-1.5322266-1.4516602
		c-0.5966797-0.4033203-1.2607422-0.6992188-1.9853516-0.8901367c-0.7255859-0.190918-1.4746094-0.2529297-2.2446289-0.1850586
		c-1.4082031,0.1230469-2.5800781,0.5-3.5151367,1.1298828c-0.9350586,0.6313477-1.6679688,1.4311523-2.1992188,2.4013672
		c-0.5307617,0.9697266-0.8837891,2.0517578-1.0605469,3.2446289c-0.1772461,1.1943359-0.2104492,2.4140625-0.1010742,3.6630859
		c0.1040039,1.1953125,0.3447266,2.3447266,0.7226562,3.4501953c0.378418,1.1044922,0.9111328,2.0820312,1.6020508,2.9306641
		c0.6899414,0.8505859,1.550293,1.5048828,2.5810547,1.9628906c1.0302734,0.4589844,2.2490234,0.6259766,3.6572266,0.5029297
		c1.9130859-0.1669922,3.3554688-0.8818359,4.3300781-2.1455078c0.9736328-1.2617188,1.4960938-2.8613281,1.5673828-4.7939453
		l6.0576172-0.5302734c-0.0039062,1.7939453-0.2753906,3.4375-0.8144531,4.9287109
		c-0.5380859,1.4931641-1.3076172,2.7919922-2.3085938,3.8964844c-1.0009766,1.1054688-2.2089844,1.9873047-3.6230469,2.6455078
		c-1.4150391,0.6591797-2.9990234,1.0664062-4.7519531,1.2197266c-2.1782227,0.1904297-4.1713867-0.0175781-5.9770508-0.6210938
		c-1.8061523-0.6054688-3.3652344-1.5195312-4.6772461-2.7431641c-1.3110352-1.2236328-2.3637695-2.7041016-3.1586914-4.4423828
		c-0.7939453-1.7363281-1.2822266-3.6416016-1.4633789-5.7138672c-0.1860352-2.125-0.0400391-4.125,0.4379883-6.0009766
		c0.4790039-1.875,1.2563477-3.5429688,2.3330078-5.0019531c1.0771484-1.4599609,2.4521484-2.6499023,4.1240234-3.5727539
		c1.6733398-0.9228516,3.5981445-1.4799805,5.7773438-1.6699219c1.5668945-0.137207,3.0678711-0.0410156,4.5014648,0.2875977
		C76.5166016,37.3574219,77.8222656,37.9067383,79,38.6723633c1.1787109,0.7670898,2.1826172,1.7573242,3.0117188,2.9692383
		c0.828125,1.2128906,1.4072266,2.6337891,1.7373047,4.2651367l-6.0566406,0.5297852
		C77.5234375,45.7285156,77.2265625,45.0917969,76.8027344,44.5263672 M44.9453125,39.6645508l13.1289062,27.5209961
		l-6.4946289,0.5683594l-2.7060547-6.1484375l-10.6401367,0.9306641l-1.6767578,6.53125l-6.2963867,0.5507812l8.2700195-29.3925781
		L44.9453125,39.6645508z M46.831543,57.0869141l-4.5-10.1264648l-0.0791016,0.0073242l-2.7929688,10.7636719L46.831543,57.0869141z
		"/>
</g>
</svg>
