<?xml version="1.0" encoding="utf-8"?>
<!-- Generator: Adobe Illustrator 15.1.0, SVG Export Plug-In  -->
<!DOCTYPE svg PUBLIC "-//W3C//DTD SVG 1.1//EN" "http://www.w3.org/Graphics/SVG/1.1/DTD/svg11.dtd" [
	<!ENTITY ns_flows "http://ns.adobe.com/Flows/1.0/">
]>
<svg version="1.1"
	 xmlns="http://www.w3.org/2000/svg" xmlns:xlink="http://www.w3.org/1999/xlink" xmlns:a="http://ns.adobe.com/AdobeSVGViewerExtensions/3.0/"
	 x="0px" y="0px" width="125px" height="122px" viewBox="0 -0.1210938 125 122"
	 overflow="visible" enable-background="new 0 -0.1210938 125 122" xml:space="preserve">
<defs>
</defs>
<g>
	<defs>
		<rect id="SVGID_1_" width="124.0488281" height="121.8789062"/>
	</defs>
	<clipPath id="SVGID_2_">
		<use xlink:href="#SVGID_1_"  overflow="visible"/>
	</clipPath>
	<path clip-path="url(#SVGID_2_)" fill="#FFFFFF" d="M61.9692383,120.4267578
		c32.8666992,0,59.5092773-26.6425781,59.5092773-59.5087891c0-32.8652344-26.6425781-59.5078125-59.5092773-59.5078125
		c-32.8657227,0-59.5087891,26.6425781-59.5087891,59.5078125C2.4604492,93.7841797,29.1035156,120.4267578,61.9692383,120.4267578"
		/>
	<path clip-path="url(#SVGID_2_)" d="M64.8662109,46.3515625l2.4257812,2.6171875l0.2548828-2.6171875H64.8662109z
		 M55.5439453,27.9003906l-1.3398438,2.1708984l0.8300781,2.3623047l1.8510742-2.1074219L55.5439453,27.9003906z
		 M51.0112305,18.8984375H47.5l-1.3408203,4.5332031l3.5117188-0.5117188l2.1074219-1.5957031L51.0112305,18.8984375z
		 M58.800293,23.6865234l-0.9570312,2.4257812l1.7236328,3.1289062l1.5961914,0.5742188l-2.4257812,2.9365234l2.6806641,0.2558594
		l2.8730469-2.9365234L58.800293,23.6865234z M102.6289062,102.1835938
		c-11.5126953,11.1728516-25.2929688,16.7587891-41.3388672,16.7587891c-16.046875,0-29.7509766-5.5019531-41.1147461-16.5039062
		C8.8100586,91.4365234,3.1279297,77.9335938,3.1279297,61.9296875c0-7.1923828,1.5532227-14.7695312,4.6611328-22.7294922
		c3.0219727-7.7460938,6.2568359-12.7675781,9.7041016-15.0673828c1.2338867-0.8076172,2.6391602-1.2128906,4.2138672-1.2128906
		c0.0419922,0,0.4570312,0.8623047,1.2451172,2.5859375c0.7871094,1.7246094,1.6918945,2.5859375,2.7128906,2.5859375
		c1.6171875,0,3.1289062-1.6162109,4.5332031-4.8525391c1.7446289-4.1269531,3.6489258-6.9902344,5.7138672-8.5869141
		c2.0639648-1.5957031,4.0961914-2.7128906,6.097168-3.3515625c0.7236328-0.1279297,1.4467773-0.2558594,2.1708984-0.3828125
		c1.0219727-0.2558594,1.5317383-0.6386719,1.5317383-1.1494141c0-1.0634766-0.5737305-2.0429688-1.7226562-2.9375
		c4.9790039-2.0839844,11.277832-3.1279297,18.8969727-3.1279297c6.8530273,0,13.4711914,1.1923828,19.855957,3.5751953
		l-1.0214844,5.5546875h-9.4492188l-11.4912109,9.9599609l5.3623047,4.5966797l1.7871094-2.8095703l1.2773438,3.5751953
		l3.5751953-3.3193359l-2.2978516-1.2763672l5.0439453-2.5546875l-1.8525391,7.7255859l-1.8505859,2.1064453l-8.2998047,3.7675781
		l-2.3623047,3.4462891l-5.6191406,1.5966797l-3.765625,4.5332031l4.8515625,2.4257812l2.6171875-4.7880859l4.2783203,0.765625
		l2.9365234-2.6806641l3.7666016,2.6806641l1.5966797,4.5332031l-2.1708984,1.5957031l5.6171875-1.3398438l-0.765625-2.3632812
		l3.1923828,1.5966797l-4.0224609-5.1074219l-0.5107422-3.1914062l7.9814453,0.3183594l1.8505859,9.8320312h3.1923828
		l-2.6171875,6.3837891c-2.3417969-0.1269531-5.0878906-0.6152344-8.2363281-1.4677734
		c-5.3203125-1.4892578-8.0019531-2.234375-8.0439453-2.234375c-1.8740234-0.2558594-3.7460938-0.53125-5.6186523-0.8300781
		c-2.1704102-0.3408203-3.9580078-0.9990234-5.3632812-1.9794922c-6.0009766,2.5117188-10.6201172,4.2363281-13.8540039,5.171875
		l-1.9150391,9.7041016l2.8730469,6.7041016l11.1088867,2.6171875l4.9799805,7.0224609
		c2.2124023,8.34375,3.5751953,16.6210938,4.0859375,24.8349609l5.8730469,3.8310547l8.1728516-7.0224609
		c1.5742188-5.8730469,2.3398438-12.4072266,2.2988281-19.6005859c2.7226562-3.3613281,5.4472656-6.6601562,8.171875-9.8955078
		c-0.2558594-4.5107422-1.703125-9.1933594-4.3417969-14.0458984l1.46875-0.8935547l4.6601562,10.5341797l8.171875-2.9365234
		l-3.1923828-6.1289062c5.3623047-0.5537109,8.171875-0.8300781,8.4287109-0.8300781
		c0.0410156,0,5.5742188,0.5966797,16.5976562,1.7880859v2.2333984
		C119.8984375,77.421875,114.1425781,91.0097656,102.6289062,102.1835938 M105.6621094,17.6855469
		C93.5322266,5.8964844,78.9746094,0,61.9931641,0C45.0102539,0,30.4541016,5.8964844,18.3232422,17.6855469
		C6.1069336,29.6035156,0,44.0322266,0,60.9716797c0,16.9404297,6.0859375,31.3261719,18.2592773,43.1582031
		c12.1728516,11.8320312,26.7509766,17.7490234,43.7338867,17.7490234c16.9814453,0,31.5712891-5.9169922,43.7646484-17.7490234
		c12.1943359-11.8320312,18.2910156-26.2177734,18.2910156-43.1582031
		C124.0488281,44.0322266,117.9199219,29.6035156,105.6621094,17.6855469"/>
</g>
</svg>
